name C:/MyDriveSym/Projects/mobilecap/Data\Session20210903_0002\mocap\ForceDataProcessed\walkingTS2_forces.mot
datacolumns 19
datarows 17
range 0.74950000 0.75750000
endheader 
time	R_ground_force_vx	R_ground_force_vy	R_ground_force_vz	R_ground_force_px	R_ground_force_py	R_ground_force_pz	R_ground_torque_x	R_ground_torque_y	R_ground_torque_z	L_ground_force_vx	L_ground_force_vy	L_ground_force_vz	L_ground_force_px	L_ground_force_py	L_ground_force_pz	L_ground_torque_x	L_ground_torque_y	L_ground_torque_z	
          0.74950000	         40.56186600	        129.68634000	         -8.51564600	          0.30905900	          0.00600000	         -0.12980200	          0.00000000	         -0.18019300	          0.00000000	       -102.13562000	        593.43144000	         40.97936900	          0.83011800	          0.00600000	         -0.36679400	          0.00000000	          0.29086000	          0.00000000	
          0.75000000	         40.16193100	        128.20592000	         -8.39483500	          0.30922000	          0.00600000	         -0.12980400	          0.00000000	         -0.17808500	          0.00000000	       -102.27724900	        594.57581500	         41.23664500	          0.83026500	          0.00600000	         -0.36683500	          0.00000000	          0.29418700	          0.00000000	
          0.75050000	         39.76284100	        126.73242100	         -8.27485900	          0.30938300	          0.00600000	         -0.12980600	          0.00000000	         -0.17597100	          0.00000000	       -102.41359700	        595.69788000	         41.49283500	          0.83041200	          0.00600000	         -0.36687600	          0.00000000	          0.29751000	          0.00000000	
          0.75100000	         39.36463500	        125.26591000	         -8.15572300	          0.30954700	          0.00600000	         -0.12980800	          0.00000000	         -0.17385100	          0.00000000	       -102.54468000	        596.79767000	         41.74791400	          0.83055900	          0.00600000	         -0.36691700	          0.00000000	          0.30082900	          0.00000000	
          0.75150000	         38.96735000	        123.80645600	         -8.03742800	          0.30971300	          0.00600000	         -0.12980900	          0.00000000	         -0.17172500	          0.00000000	       -102.67051600	        597.87522400	         42.00185800	          0.83070600	          0.00600000	         -0.36695800	          0.00000000	          0.30414100	          0.00000000	
          0.75200000	         38.57102200	        122.35412200	         -7.91997500	          0.30988000	          0.00600000	         -0.12981000	          0.00000000	         -0.16959500	          0.00000000	       -102.79112400	        598.93058600	         42.25464300	          0.83085300	          0.00600000	         -0.36699900	          0.00000000	          0.30744700	          0.00000000	
          0.75250000	         38.17568800	        120.90897300	         -7.80336800	          0.31004900	          0.00600000	         -0.12981200	          0.00000000	         -0.16746000	          0.00000000	       -102.90652300	        599.96380600	         42.50624300	          0.83100000	          0.00600000	         -0.36704000	          0.00000000	          0.31074500	          0.00000000	
          0.75300000	         37.78138300	        119.47107400	         -7.68760700	          0.31021900	          0.00600000	         -0.12981300	          0.00000000	         -0.16532000	          0.00000000	       -103.01673400	        600.97493800	         42.75663500	          0.83114600	          0.00600000	         -0.36708100	          0.00000000	          0.31403500	          0.00000000	
          0.75350000	         37.38814300	        118.04048600	         -7.57269300	          0.31039100	          0.00600000	         -0.12981300	          0.00000000	         -0.16317600	          0.00000000	       -103.12177800	        601.96404200	         43.00579300	          0.83129300	          0.00600000	         -0.36712200	          0.00000000	          0.31731600	          0.00000000	
          0.75400000	         36.99600200	        116.61727000	         -7.45863000	          0.31056400	          0.00600000	         -0.12981400	          0.00000000	         -0.16102800	          0.00000000	       -103.22168000	        602.93118100	         43.25369300	          0.83143900	          0.00600000	         -0.36716300	          0.00000000	          0.32058600	          0.00000000	
          0.75450000	         36.60499600	        115.20148600	         -7.34541700	          0.31073900	          0.00600000	         -0.12981400	          0.00000000	         -0.15887600	          0.00000000	       -103.31646200	        603.87642400	         43.50031100	          0.83158600	          0.00600000	         -0.36720400	          0.00000000	          0.32384500	          0.00000000	
          0.75500000	         36.21515800	        113.79319300	         -7.23305500	          0.31091600	          0.00600000	         -0.12981400	          0.00000000	         -0.15672100	          0.00000000	       -103.40615000	        604.79984300	         43.74562100	          0.83173200	          0.00600000	         -0.36724600	          0.00000000	          0.32709200	          0.00000000	
          0.75550000	         35.82652300	        112.39244700	         -7.12154700	          0.31109400	          0.00600000	         -0.12981400	          0.00000000	         -0.15456200	          0.00000000	       -103.49076900	        605.70151700	         43.98959900	          0.83187800	          0.00600000	         -0.36728700	          0.00000000	          0.33032600	          0.00000000	
          0.75600000	         35.43912300	        110.99930600	         -7.01089200	          0.31127400	          0.00600000	         -0.12981400	          0.00000000	         -0.15240100	          0.00000000	       -103.57034500	        606.58152600	         44.23222000	          0.83202500	          0.00600000	         -0.36732800	          0.00000000	          0.33354600	          0.00000000	
          0.75650000	         35.05299200	        109.61382400	         -6.90109100	          0.31145600	          0.00600000	         -0.12981300	          0.00000000	         -0.15023700	          0.00000000	       -103.64490700	        607.43995600	         44.47345900	          0.83217100	          0.00600000	         -0.36737000	          0.00000000	          0.33675200	          0.00000000	
          0.75700000	         34.66816100	        108.23605500	         -6.79214500	          0.31164000	          0.00600000	         -0.12981200	          0.00000000	         -0.14807000	          0.00000000	       -103.71448200	        608.27689900	         44.71329000	          0.83231700	          0.00600000	         -0.36741100	          0.00000000	          0.33994100	          0.00000000	
          0.75750000	         34.28466400	        106.86605100	         -6.68405400	          0.31182600	          0.00600000	         -0.12981100	          0.00000000	         -0.14590200	          0.00000000	       -103.77909900	        609.09244700	         44.95169000	          0.83246400	          0.00600000	         -0.36745300	          0.00000000	          0.34311400	          0.00000000	
